<svg width="512" height="512" viewBox="0 0 100 100" fill="none" xmlns="http://www.w3.org/2000/svg">
  <path d="M50,5 C52,5 54,6 56,7 L85,24 C89,26 91,30 91,34 L91,66 C91,70 89,74 85,76 L56,93 C54,94 52,95 50,95 C48,95 46,94 44,93 L15,76 C11,74 9,70 9,66 L9,34 C9,30 11,26 15,24 L44,7 C46,6 48,5 50,5 Z" fill="#1a1a1a"/>
  <g transform="translate(7.500000000000001,7.500000000000001) scale(0.85)">
    <path d="M22,32 L22,68 L40,68 C48,68 54,64 54,50 C54,36 48,32 40,32 Z M30,39 L30,61 L38,61 C44,61 47,57 47,50 C47,43 44,39 38,39 Z" fill="#F97316" fill-rule="evenodd"/>
    <path d="M55,68 L67,32 L73,32 L85,68 L78,68 L75,59 L65,59 L62,68 Z M67,53 L70,44 L73,53 Z" fill="#ffffff" fill-rule="evenodd"/>
  </g>
</svg>